<?xml version="1.0" encoding="UTF-8"?><svg id="d" xmlns="http://www.w3.org/2000/svg" width="485" height="75" viewBox="0 0 485 75"><polygon points="107.73 38.09 99.04 4.37 70.79 4.37 70.79 70.32 89.74 70.32 89.74 32.85 99.3 70.32 116.06 70.32 125.65 32.83 125.65 70.32 144.59 70.32 144.59 4.37 116.35 4.37 107.73 38.09" fill="#00246d" stroke-width="0"/><path d="m172.1,4.37l-24.79,65.95h23.17l3.07-10.39h19.82l3.15,10.39h23.67L195.4,4.37h-23.3Zm16.31,38.93h-9.73l4.84-15.93,4.89,15.93Z" fill="#00246d" stroke-width="0"/><path d="m275.29,45.71c-1.46-1.81-2.57-2.99-3.4-3.58-.4-.29-.86-.57-1.39-.85,1.16-.43,2.17-.91,3.05-1.44,2.81-1.7,5.05-3.95,6.66-6.69,1.62-2.76,2.44-6.05,2.44-9.8,0-4.3-1.07-8.02-3.19-11.06-2.13-3.05-4.98-5.17-8.46-6.3-3.36-1.09-8.02-1.62-14.24-1.62h-33.92v65.95h22.55v-25.54h.21c1.47,0,2.75.39,3.88,1.17.57.42,1.57,1.5,3.08,4.34l10.82,20.02h25.35l-10.55-20.42c-.51-1.02-1.46-2.39-2.9-4.18Zm-15.19-20.82c0,1.04-.3,1.93-.91,2.73-.59.77-1.33,1.23-2.29,1.42-3.02.68-4.29.82-4.82.82h-6.69v-9.77h7.03c3.94,0,5.59.69,6.28,1.27.94.79,1.4,1.95,1.4,3.52Z" fill="#00246d" stroke-width="0"/><polygon points="285.18 4.37 285.18 22.93 305.01 22.93 305.01 70.32 327.47 70.32 327.47 22.93 347.3 22.93 347.3 4.37 285.18 4.37" fill="#00246d" stroke-width="0"/><path d="m56.53,31.81c-4.6-2.45-9.87-4.05-16.59-5.02-1.31-.19-5.62-1.02-6.29-3.74-.09-.39-.02-.76.23-1.14.4-.62,1.2-1.12,1.98-1.25,2.18-.37,5.38.09,6.76,1.46.41.41.69,1.11.77,1.34l.33,1.08,23.02.5-.32-3.08c-.45-2.74-.88-5.34-2.33-7.96C56.51.32,37,2.04,31.21,2.9c-10.04,1.48-17.09,6.52-19.85,14.2-2.74,7.63-.58,16.89,5.13,22,5.17,4.63,11.74,6.33,18.08,7.98,1.48.38,2.95.77,4.4,1.18l.41.12c1.75.5,3.74,1.06,4.27,2.48.27.72.04,1.72-.59,2.54-1.1,1.42-2.99,2.01-5.94,1.9-2.67-.11-4.72-1.92-6.08-5.37l-.46-1.59-23.03.25.29,1.74c1.22,7.31,4.35,12.69,9.59,16.44,6.14,4.41,14.79,5.91,21.52,5.91,1.19,0,2.33-.05,3.38-.13,12.52-1.04,25.41-9.11,25.82-22.54.23-7.61-3.89-14.07-11.61-18.19Z" fill="#00246d" stroke-width="0"/><polygon points="454.68 36.34 475.55 3.86 449.48 3.86 439.79 21.16 429.84 3.86 403.53 3.86 424.58 36.01 401.54 70.82 428.13 70.82 439.43 52.44 450.73 70.82 477.45 70.82 454.68 36.34" fill="#006d27" stroke-width="0"/><path d="m409.51,54.07c1.62-4.06,2.44-9.76,2.44-16.95,0-4.6-.54-9.01-1.61-13.14-1.09-4.21-2.89-7.97-5.33-11.17-2.48-3.25-5.66-5.77-9.46-7.5-3.75-1.71-8.68-2.58-14.64-2.58h-30.9v69.22h30.9c3.63,0,7.71-.62,12.12-1.85,3.43-.95,6.66-2.85,9.61-5.67,2.92-2.78,5.22-6.27,6.86-10.36Zm-36.02-32.55h2.83c4.4,0,7.52,1.05,9.28,3.12,1.27,1.49,2.78,4.93,2.78,12.88,0,6.13-.71,9.12-1.3,10.54-.79,1.88-1.84,3.19-3.14,3.9-.97.53-3.09,1.16-7.71,1.16h-2.75v-31.59Z" fill="#006d27" stroke-width="0"/></svg>