<?xml version="1.0" encoding="UTF-8"?><svg id="b" xmlns="http://www.w3.org/2000/svg" width="350" height="100" viewBox="0 0 350 100"><path d="m248.36,70.8c-.53-.18-1.07-.34-1.6-.49-.5-.14-.95-.31-1.35-.5-.36-.18-.65-.38-.87-.62-.17-.18-.25-.42-.25-.72,0-.47.18-.82.57-1.11.43-.32,1-.48,1.7-.48.58,0,1.2.12,1.83.37.64.25,1.29.64,1.94,1.17l.49.4,3.05-5.99-.45-.24c-1.24-.67-2.56-1.18-3.92-1.52-2.83-.72-5.51-.69-7.63.1-1.11.41-2.07,1-2.84,1.75-.77.75-1.38,1.66-1.81,2.71-.42,1.04-.64,2.22-.64,3.49s.21,2.37.62,3.23c.41.85.96,1.57,1.63,2.14.66.55,1.42,1,2.25,1.34.8.32,1.62.61,2.44.87.7.24,1.27.45,1.75.64.44.18.8.37,1.07.57.24.18.4.36.49.56.1.2.14.45.14.74,0,.46-.2.87-.6,1.25-.41.38-1.07.58-1.97.58-.83,0-1.69-.19-2.55-.57-.88-.39-1.78-.99-2.69-1.8l-.49-.43-3.25,6.11.38.26c2.72,1.89,5.71,2.85,8.9,2.85,1.54,0,2.95-.21,4.18-.63,1.24-.42,2.31-1.02,3.17-1.79.87-.77,1.53-1.72,1.98-2.8.45-1.08.67-2.29.67-3.61,0-1.98-.53-3.61-1.56-4.86-1.02-1.23-2.64-2.22-4.8-2.94Z" fill="#8c2800" stroke-width="0"/><polygon points="255.54 67.65 260.77 67.65 260.77 86.75 268.17 86.75 268.17 67.65 273.4 67.65 273.4 61.23 255.54 61.23 255.54 67.65" fill="#8c2800" stroke-width="0"/><path d="m336.41,76.49c1.5-.48,2.68-1.26,3.51-2.33.97-1.25,1.46-2.88,1.46-4.85,0-1.09-.18-2.14-.54-3.1-.36-.97-.9-1.84-1.6-2.58-.71-.74-1.62-1.34-2.7-1.76-1.07-.42-2.34-.64-3.76-.64h-10.42v25.52h7.4v-8.18l5.28,8.18h9.25l-7.87-10.26Zm-6.66-9.33h.69c1.13,0,2,.23,2.57.67.54.42.81,1.02.81,1.83s-.26,1.41-.81,1.83c-.58.45-1.44.67-2.57.67h-.69v-5.01Z" fill="#8c2800" stroke-width="0"/><polygon points="30.71 27.51 25.11 42.52 19.48 27.51 10.98 27.51 5.72 58.48 14.52 58.48 16.88 42.73 23.01 58.48 26.81 58.48 33.3 42.66 35.67 58.48 44.46 58.48 39.21 27.51 30.71 27.51" fill="#300" stroke-width="0"/><path d="m57.28,27.51l-11.79,30.97h9.41l1.79-5.2h10.38l1.79,5.2h9.41l-11.79-30.97h-9.21Zm7.37,18.82h-5.53l2.77-7.89,2.77,7.89Z" fill="#300" stroke-width="0"/><path d="m100.58,43.13c1.17-1.5,1.76-3.47,1.76-5.85,0-1.33-.22-2.59-.65-3.75-.43-1.17-1.08-2.22-1.94-3.12-.86-.9-1.95-1.61-3.26-2.13-1.3-.51-2.83-.77-4.56-.77h-12.62v30.97h8.81v-10.28l6.63,10.28h11.01l-9.58-12.48c1.88-.57,3.36-1.53,4.39-2.86Zm-12.46-8.59h.95c1.41,0,2.49.28,3.22.85.69.54,1.03,1.3,1.03,2.33s-.34,1.79-1.03,2.33c-.72.56-1.81.84-3.22.84h-.95v-6.35Z" fill="#300" stroke-width="0"/><polygon points="135.29 27.51 124.32 27.51 115.6 38.86 115.6 27.51 106.79 27.51 106.79 58.48 115.6 58.48 115.6 46.48 124.96 58.48 136.39 58.48 122.98 42.21 135.29 27.51" fill="#300" stroke-width="0"/><polygon points="137.42 58.48 155.48 58.48 155.48 50.86 146.23 50.86 146.23 46.73 154.97 46.73 154.97 39.11 146.23 39.11 146.23 35.14 155.48 35.14 155.48 27.51 137.42 27.51 137.42 58.48" fill="#300" stroke-width="0"/><polygon points="157.03 35.14 163.42 35.14 163.42 58.48 172.23 58.48 172.23 35.14 178.63 35.14 178.63 27.51 157.03 27.51 157.03 35.14" fill="#300" stroke-width="0"/><rect x="180.17" y="27.51" width="8.81" height="30.97" fill="#300" stroke-width="0"/><polygon points="212.69 44.84 199.08 27.51 190.53 27.51 190.53 58.48 199.34 58.48 199.34 41.15 212.95 58.48 221.46 58.48 221.46 27.51 212.69 27.51 212.69 44.84" fill="#300" stroke-width="0"/><path d="m238.41,40.69v7.07h6.28c-.13.55-.32,1.03-.57,1.44-.33.54-.75.99-1.26,1.33-.52.35-1.11.6-1.76.76-.67.16-1.38.24-2.1.24-1.22,0-2.3-.21-3.2-.61-.9-.4-1.67-.98-2.28-1.71-.61-.74-1.08-1.62-1.39-2.64-.31-1.03-.47-2.17-.47-3.38,0-1.34.18-2.57.55-3.65.36-1.07.86-2,1.49-2.75.62-.74,1.38-1.33,2.26-1.73.88-.4,1.88-.61,2.96-.61,1.3,0,2.46.33,3.47.99,1,.65,1.84,1.76,2.49,3.3l.2.47,8.36-3.46-.24-.49c-1.42-2.91-3.37-5.1-5.81-6.49-2.42-1.39-5.27-2.09-8.47-2.09-2.46,0-4.73.4-6.74,1.19-2.02.79-3.76,1.91-5.2,3.33-1.44,1.42-2.56,3.16-3.33,5.16-.77,2-1.17,4.22-1.17,6.6s.4,4.64,1.19,6.64c.79,2,1.91,3.74,3.33,5.18,1.42,1.43,3.14,2.56,5.12,3.35,1.97.79,4.18,1.19,6.56,1.19,1.73,0,3.41-.22,4.98-.65,1.58-.43,3.04-1.08,4.37-1.91,1.33-.84,2.5-1.89,3.48-3.13.98-1.24,1.77-2.69,2.34-4.3.41-1.14.69-2.4.82-3.73.13-1.31.2-2.78.2-4.38v-.52h-16.48Z" fill="#300" stroke-width="0"/><polygon points="335.07 40.73 272.35 86.31 277.63 65.69 313.18 48.36 275.23 60.46 257.54 40.73 335.07 40.73" fill="#ed4f00" stroke-width="0"/><polygon points="284.33 36.84 296.31 12.57 308.29 36.84 284.33 36.84" fill="#8c2800" stroke-width="0"/><polygon points="315.69 59.63 320.27 86.31 296.31 73.71 315.69 59.63" fill="#8c2800" stroke-width="0"/></svg>