<?xml version="1.0" encoding="UTF-8"?><svg id="a" xmlns="http://www.w3.org/2000/svg" width="140" height="32" viewBox="0 0 140 32"><path d="m24.46,19.06h0c-.66-.82-1.16-1.35-1.54-1.62-.09-.07-.2-.14-.31-.2.38-.16.73-.33,1.03-.51,1.27-.77,2.28-1.78,3.01-3.02.73-1.25,1.1-2.74,1.1-4.43,0-1.94-.49-3.62-1.44-5-.97-1.38-2.26-2.35-3.83-2.86-1.48-.48-3.62-.72-6.36-.72H.93v29.54h10.34v-11.3c.58.02,1.08.17,1.52.48.2.14.62.57,1.31,1.86l4.84,8.95h11.62l-4.8-9.3c-.23-.46-.66-1.08-1.3-1.88Zm-13.18-11.04h2.93c1.78,0,2.43.33,2.66.52.38.32.55.77.55,1.42,0,.42-.12.77-.36,1.1-.24.31-.52.49-.91.56-1.39.31-1.91.36-2.09.36h-2.78v-3.96Z" fill="navy" stroke-width="0"/><polygon points="42.27 18.9 55.14 18.9 55.14 11.78 42.27 11.78 42.27 9.19 56.15 9.19 56.15 1.82 32.33 1.82 32.33 30.23 56.55 30.23 56.55 22.52 42.27 22.52 42.27 18.9" fill="navy" stroke-width="0"/><path d="m80.04,13.6c-1.84-.96-3.93-1.52-5.89-1.99-1.4-.34-2.86-.55-4.23-1.04-.26-.09-.53-.21-.72-.42-.58-.66-.31-1.73.38-2.18.45-.29,1.01-.38,1.54-.38.49,0,.99.06,1.46.22.79.29,1.34.9,1.74,1.62.24.44.54,1.13.54,1.13l9.51-.13-.12-.68c-.38-3.15-1.63-5.49-3.69-6.96-2-1.43-4.9-2.15-8.62-2.15-3,0-5.41.39-7.18,1.17-1.81.8-3.2,1.92-4.11,3.34-.92,1.42-1.39,2.96-1.39,4.57,0,2.45.92,4.98,2.73,6.56,1.71,1.5,4.55,2.71,8.44,3.59.81.18,1.63.38,2.42.65.94.32,2.49,1.01,2.27,2.27-.06.36-.32.66-.63.87-1.24.83-3.49.59-4.69-.21-1.21-.8-1.6-1.59-2.11-2.86l-.08-.25-9.47.1s.08.92.08.92c.25,2.96,1.41,5.31,3.71,7.27,2.77,2.37,6.56,2.72,10.07,2.72,2.8,0,5.17-.42,7.04-1.25,1.92-.85,3.43-2.11,4.51-3.76,1.08-1.65,1.74-3.46,1.62-5.47-.1-1.66-.72-3.28-1.75-4.58-.91-1.16-2.08-2.02-3.37-2.69Z" fill="navy" stroke-width="0"/><path d="m104.38,19.17c0,1.3-.33,2.29-.97,2.96-.65.68-1.56,1.01-2.76,1.01s-2.12-.33-2.78-1.02c-.66-.69-.97-1.66-.97-2.95V1.8h-9.91v16.98c0,1.44.27,3.11.8,4.95.35,1.21,1,2.4,1.93,3.52.92,1.12,1.96,1.99,3.08,2.6,1.12.61,2.51,1.02,4.15,1.22,1.57.19,3.03.29,4.36.29,2.34,0,4.38-.33,6.07-.98,1.26-.48,2.48-1.33,3.61-2.5,1.14-1.18,1.98-2.58,2.51-4.15.52-1.54.79-3.21.79-4.94V1.8h-9.91v17.37Z" fill="navy" stroke-width="0"/><polygon points="126.16 1.82 116.24 1.82 116.24 30.23 139.07 30.23 139.07 21.99 126.16 21.99 126.16 1.82" fill="navy" stroke-width="0"/></svg>